<svg id="Capa_1" enable-background="new 0 0 512 512" height="512" viewBox="0 0 512 512" width="512" xmlns="http://www.w3.org/2000/svg"><g><path d="m229.176 362.13h53.649c13.636 0 26.478-5.998 35.232-16.456 8.754-10.457 12.399-24.152 10.001-37.574-.011-.061-.027-.146-.045-.229-3.042-16.719-14.84-30.693-30.822-36.493l-12.326-4.468v-19.874c8.116-8.06 12.77-19.176 12.77-30.549v-24.649c0-23.142-18.827-41.969-41.969-41.969s-41.969 18.827-41.969 41.969v25.421c0 11.704 4.915 22.369 12.778 30.024v19.967l-11.687 4.24c-15.8 5.73-27.579 19.548-30.739 36.061-.554 2.892-.834 5.825-.834 8.72.001 25.286 20.618 45.859 45.961 45.859zm-.479-170.292c0-14.871 12.098-26.969 26.969-26.969 13.021 0 23.914 9.275 26.424 21.564-1.588.828-3.245 1.593-4.956 2.279-11.983 4.799-21.579 4.005-24.568 1.909-3.393-2.38-8.069-1.558-10.446 1.833-2.379 3.391-1.559 8.068 1.833 10.447 4.141 2.905 9.929 4.354 16.547 4.354 6.801 0 14.478-1.533 22.136-4.59v13.822c0 7.458-3.082 14.759-8.457 20.031-5.206 5.106-11.942 7.849-19.043 7.707-14.577-.281-26.438-12.378-26.438-26.966v-25.421zm26.149 67.384c.269.005.535.008.803.008 4.911 0 9.704-.88 14.217-2.554v11.87c-8.529 5.698-19.854 5.703-28.39-.013v-11.812c4.195 1.528 8.69 2.411 13.37 2.501zm-56.064 51.148c2.172-11.348 10.265-20.842 21.121-24.78l13.042-4.731c6.821 4.619 14.774 6.935 22.731 6.935 8.085 0 16.166-2.392 23.054-7.152l13.348 4.838c11.011 3.995 19.132 13.64 21.194 25.17.01.057.025.134.042.212 1.571 9-.889 18.171-6.759 25.183-5.896 7.044-14.546 11.084-23.73 11.084h-53.649c-17.071 0-30.96-13.844-30.96-30.86 0-1.95.19-3.935.566-5.899z"/><path d="m504.5 248.5h-29.715c-.28-8.368-1.014-16.657-2.216-24.832 11.886-10.5 17.681-26.64 14.922-42.413-.013-.088-.027-.176-.043-.264-3-16.782-14.823-30.818-30.855-36.631l-15.674-5.685c-2.356-3.698-4.838-7.326-7.426-10.892 2.87-1.451 5.595-3.223 8.092-5.318 9.825-8.211 15.461-20.241 15.461-33.005v-24.65c0-11.205-4.367-21.743-12.298-29.674-7.93-7.929-18.468-12.296-29.673-12.296-23.143 0-41.97 18.828-41.97 41.97v6.126c-32.662-20.758-70.284-32.428-109.71-33.729v-29.707c0-4.142-3.357-7.5-7.5-7.5s-7.5 3.358-7.5 7.5v29.714c-55.624 1.886-107.646 24.425-147.198 63.979-39.576 39.578-62.119 91.642-63.98 147.307h-29.717c-4.143 0-7.5 3.358-7.5 7.5s3.357 7.5 7.5 7.5h29.717c1.629 48.713 19.101 94.663 49.963 131.905l-16.389 6.342c-15.76 5.747-27.506 19.546-30.663 36.036-.552 2.893-.832 5.825-.832 8.717 0 25.287 20.617 45.86 45.96 45.86h53.649c19.43 0 36.612-12.474 43.151-30.173 21.086 7.546 43.408 11.822 66.339 12.599v29.714c0 4.142 3.357 7.5 7.5 7.5s7.5-3.358 7.5-7.5v-29.707c55.704-1.838 107.806-24.385 147.407-63.986 39.578-39.577 62.121-91.641 63.982-147.307h29.716c4.143 0 7.5-3.358 7.5-7.5s-3.357-7.5-7.5-7.5zm-63.588 0c-.181-4.506-.522-8.971-1.021-13.39h2.345c5.64 0 11.134-1.016 16.287-2.969.631 5.392 1.051 10.848 1.251 16.359zm31.74-65.034c.013.083.025.165.041.247 1.342 7.487-.067 14.916-3.754 21.151-3.807-15.985-9.395-31.428-16.674-46.088 10.563 4.143 18.331 13.511 20.387 24.69zm-84.547-118.656c0-14.872 12.099-26.97 26.97-26.97 7.198 0 13.97 2.807 19.066 7.903 3.797 3.797 6.321 8.523 7.362 13.662-1.591.829-3.25 1.596-4.964 2.283-11.98 4.798-21.579 4.005-24.568 1.908-3.393-2.379-8.068-1.557-10.447 1.833-2.378 3.392-1.557 8.068 1.834 10.447 4.142 2.905 9.931 4.354 16.549 4.354 6.801 0 14.48-1.534 22.139-4.591v13.821c0 8.307-3.674 16.142-10.091 21.504-2.404 2.017-5.111 3.577-7.971 4.637-4.161-4.961-8.548-9.775-13.181-14.408-7.171-7.171-14.76-13.769-22.697-19.8v-16.583zm68.03 152.016c-4.276 2.156-9.005 3.284-13.9 3.284h-4.662c-16.35-82.902-89.781-145.745-174.178-149.125v-18.767c95.75 3.434 174.879 73.186 192.74 164.608zm-33.88 3.284h-33.68c-17.065 0-30.949-13.848-30.949-30.87 0-1.95.19-3.936.565-5.899 2.172-11.341 10.265-20.833 21.122-24.771l12.696-4.606c14.5 19.294 24.99 41.758 30.246 66.146zm-173.859-167.884v18.758c-96.155 3.851-173.665 81.361-177.516 177.516h-18.651c3.869-106.461 89.724-192.352 196.167-196.274zm-119.764 315.993c-.134.112-.256.233-.38.352-8.737-9.894-16.269-20.721-22.449-32.273 2.733.254 5.583.386 8.457.386 8.914 0 18.035-1.234 24.456-3.787v13.825c0 8.297-3.676 16.133-10.084 21.497zm4.581-49.276c-10.302 4.124-28.87 2.845-35.133.811-2.169-5.375-4.079-10.863-5.693-16.457 5.056-5.243 11.938-8.197 19.358-8.197 7.208 0 13.978 2.805 19.071 7.908 3.794 3.789 6.317 8.512 7.358 13.654-1.59.829-3.249 1.595-4.961 2.281zm5.692 158.417h-53.649c-17.071 0-30.96-13.844-30.96-30.86 0-1.95.19-3.936.565-5.899 2.173-11.348 10.266-20.843 21.121-24.78.051-.018.101-.037.15-.056l21.706-8.399c1.107 1.156 2.223 2.306 3.359 3.442 19.605 19.606 42.277 35.026 66.929 45.832-4.29 12.132-15.983 20.72-29.221 20.72zm-86.676-213.86h18.656c2.369 59.127 33.749 114.564 83.127 147.156 3.457 2.281 8.109 1.33 10.392-2.128 2.281-3.457 1.329-8.109-2.128-10.391-8.5-5.61-16.379-11.908-23.612-18.774 9.568-8.211 15.053-20.072 15.053-32.644v-24.65c0-11.218-4.369-21.757-12.293-29.668-7.919-7.933-18.459-12.301-29.678-12.301-8.307 0-16.371 2.511-23.175 7.011-1.432-7.74-2.323-15.627-2.671-23.611h26.18c4.143 0 7.5-3.358 7.5-7.5s-3.357-7.5-7.5-7.5h-26.19c3.832-87.883 74.623-158.674 162.505-162.506v26.085c0 4.142 3.357 7.5 7.5 7.5s7.5-3.358 7.5-7.5v-26.085c46.87 2.043 88.883 23.124 118.468 55.696l-7.664 2.779c-15.801 5.73-27.58 19.544-30.741 36.054-.552 2.893-.832 5.825-.832 8.717 0 25.292 20.612 45.87 45.949 45.87h36.218c.542 4.414.912 8.88 1.109 13.39h-25.981c-4.143 0-7.5 3.358-7.5 7.5s3.357 7.5 7.5 7.5h25.981c-3.832 87.883-74.624 158.675-162.506 162.506v-26.085c0-4.142-3.357-7.5-7.5-7.5s-7.5 3.358-7.5 7.5v26.086c-21.422-.919-42.142-5.769-61.688-14.478-3.783-1.684-8.218.014-9.903 3.798-1.686 3.783.015 8.217 3.798 9.903 21.479 9.57 44.252 14.859 67.793 15.787v18.757c-106.443-3.922-192.298-89.813-196.167-196.274zm211.167 196.282v-18.766c96.155-3.851 173.665-81.361 177.516-177.516h18.862c-3.873 106.528-89.837 192.461-196.378 196.282z"/></g></svg>