<svg id="Capa_1" enable-background="new 0 0 512 512" height="512" viewBox="0 0 512 512" width="512" xmlns="http://www.w3.org/2000/svg"><g><path d="m504.5 342.542c4.143 0 7.5-3.357 7.5-7.5v-215.239c0-24.443-19.884-44.33-44.324-44.33h-195.355c-14.719 0-28.666-6.396-38.269-17.551l-27.969-32.445c-12.46-14.462-30.554-22.757-49.64-22.757h-112.119c-24.44 0-44.324 19.886-44.324 44.329v365.249c0 24.443 19.884 44.329 44.324 44.329h5.67v25.004c0 15.246 12.401 27.649 27.646 27.649h356.718c15.244 0 27.646-12.403 27.646-27.649v-25.004h5.673c24.44 0 44.324-19.886 44.324-44.329v-44.427c0-4.143-3.357-7.5-7.5-7.5s-7.5 3.357-7.5 7.5v44.427c0 16.172-13.155 29.329-29.324 29.329h-5.673v-187.52c0-15.246-12.401-27.649-27.646-27.649h-87.238v-13.242c0-30.235-24.598-54.833-54.833-54.833h-72.575c-30.234 0-54.832 24.598-54.832 54.833v13.242h-87.239c-15.244 0-27.646 12.403-27.646 27.649v187.52h-5.67c-16.17 0-29.324-13.157-29.324-29.329v-365.249c-.001-16.172 13.153-29.329 29.323-29.329h112.119c14.717 0 28.668 6.396 38.278 17.55l27.966 32.443c12.452 14.465 30.542 22.761 49.634 22.761h195.354c16.17 0 29.324 13.157 29.324 29.33v215.238c.001 4.142 3.358 7.5 7.501 7.5zm-392.499-4.782-20.434-5.225c-15.646-4-26.573-18.075-26.573-34.227v-44.198c0-6.975 5.673-12.649 12.646-12.649h356.718c6.973 0 12.646 5.674 12.646 12.649v44.198c0 16.151-10.927 30.227-26.571 34.227l-151.895 38.837c-8.201 2.098-16.872 2.098-25.077 0l-102.451-26.195c-4.016-1.024-8.098 1.397-9.124 5.409-1.025 4.013 1.396 8.098 5.409 9.124l102.451 26.195c5.316 1.359 10.785 2.039 16.254 2.039 5.468 0 10.937-.68 16.253-2.039l151.896-38.837c8.871-2.269 16.672-6.816 22.855-12.913v107.959c-27.178 3.398-48.767 24.988-52.165 52.166h-277.68c-3.398-27.178-24.987-48.768-52.165-52.166v-107.959c6.184 6.097 13.985 10.645 22.857 12.913l20.435 5.225c4.018 1.027 8.098-1.396 9.124-5.409s-1.395-8.098-5.409-9.124zm188.702-111.883h-89.409v-7.639c0-8.582 6.981-15.563 15.563-15.563h58.284c8.581 0 15.563 6.981 15.563 15.563v7.639zm-223.063 268.403c-6.973 0-12.646-5.675-12.646-12.649v-24.378c18.899 3.173 33.854 18.128 37.026 37.027zm369.363-12.649c0 6.975-5.673 12.649-12.646 12.649h-24.381c3.173-18.899 18.127-33.854 37.026-37.027v24.378zm-267.124-268.415c0-21.964 17.868-39.833 39.832-39.833h72.575c21.964 0 39.833 17.869 39.833 39.833v12.661h-16.416v-7.639c0-16.853-13.71-30.563-30.563-30.563h-58.284c-16.853 0-30.563 13.71-30.563 30.563v7.639h-16.415v-12.661z"/><path d="m255.999 426.173c4.143 0 7.5-3.357 7.5-7.5v-10.454c0-4.143-3.357-7.5-7.5-7.5s-7.5 3.357-7.5 7.5v10.454c0 4.142 3.357 7.5 7.5 7.5z"/></g></svg>