<?xml version="1.0" encoding="iso-8859-1"?>
<!-- Generator: Adobe Illustrator 19.0.0, SVG Export Plug-In . SVG Version: 6.00 Build 0)  -->
<svg version="1.1" id="Capa_1" xmlns="http://www.w3.org/2000/svg" xmlns:xlink="http://www.w3.org/1999/xlink" x="0px" y="0px"
	 viewBox="0 0 512 512" style="enable-background:new 0 0 512 512;" xml:space="preserve">
<g>
	<g>
		<path d="M165.534,31.973h-30.29c-4.143,0-7.5,3.357-7.5,7.5c0,4.143,3.357,7.5,7.5,7.5h30.29c4.143,0,7.5-3.357,7.5-7.5
			C173.034,35.33,169.677,31.973,165.534,31.973z"/>
	</g>
</g>
<g>
	<g>
		<path d="M111.101,32.116c-4.654-0.913-8.961,2.641-8.961,7.36c0,4.154,3.402,7.5,7.5,7.5c4.013,0,7.5-3.281,7.5-7.5
			C117.14,35.893,114.651,32.853,111.101,32.116z"/>
	</g>
</g>
<g>
	<g>
		<path d="M142.209,431.079h-10.615c-4.143,0-7.5,3.357-7.5,7.5c0,4.143,3.357,7.5,7.5,7.5h10.615c4.143,0,7.5-3.357,7.5-7.5
			C149.709,434.436,146.351,431.079,142.209,431.079z"/>
	</g>
</g>
<g>
	<g>
		<path d="M326.825,378.583c-3.586-2.071-8.176-0.844-10.245,2.745l-5.498,9.522c-2.071,3.587-0.842,8.174,2.745,10.245
			c3.564,2.058,8.162,0.865,10.245-2.745l5.498-9.522C331.641,385.241,330.412,380.654,326.825,378.583z"/>
	</g>
</g>
<g>
	<g>
		<path d="M347.64,342.529c-3.589-2.071-8.174-0.843-10.245,2.745l-5.498,9.523c-2.071,3.587-0.842,8.174,2.745,10.245
			c3.582,2.066,8.171,0.849,10.245-2.745l5.498-9.523C352.456,349.187,351.227,344.6,347.64,342.529z"/>
	</g>
</g>
<g>
	<g>
		<path d="M368.456,306.476c-3.587-2.071-8.175-0.843-10.245,2.745l-5.498,9.522c-2.071,3.587-0.842,8.174,2.745,10.245
			c3.564,2.058,8.162,0.865,10.245-2.745l5.498-9.522C373.272,313.134,372.043,308.547,368.456,306.476z"/>
	</g>
</g>
<g>
	<g>
		<path d="M437.931,186.138c-24.388-14.083-54.687,2.85-56.077,30.472c-23.143,14.938-22.803,49.744,1.623,63.847
			c24.038,13.877,54.692-2.523,56.102-30.489C462.668,235.037,462.447,200.293,437.931,186.138z M390.979,267.465
			c-11.796-6.809-15.096-22.856-5.981-33.803c6.539,14.862,21.972,23.885,38.24,22.093
			C418.314,269.11,402.772,274.275,390.979,267.465z M398.079,225.998c10.86-2.043,21.582,4.143,25.249,14.587
			C412.449,242.635,401.749,236.444,398.079,225.998z M436.43,232.91c-6.538-14.877-22.109-23.866-38.263-22.084
			c4.825-13.129,20.252-18.634,32.265-11.697C442.297,205.98,445.5,221.989,436.43,232.91z"/>
	</g>
</g>
<g>
	<g>
		<path d="M219.997,165.012l-25.384-25.383c-7.492-7.494-17.455-11.621-28.053-11.621c-11.04,0-46.503,0-57.616,0
			c-10.598,0-20.562,4.127-28.053,11.62l-26.188,26.186c-3.581,3.582-3.581,9.409,0,12.991l29.233,29.233
			c2.826,2.824,7.032,3.445,10.464,1.865v51.255c0,6.018,4.896,10.914,10.914,10.914h65.145c5.87,0,10.645-4.775,10.645-10.645
			v-51.81c3.605,1.49,8.038,0.847,11.102-2.217L220,179.605C224.019,175.583,224.019,169.038,219.997,165.012z M152.213,143.009
			c-6.098,11.712-22.827,11.706-28.922,0H152.213z M166.104,257.071H109.4v-37.488h56.704V257.071z M185,193.392l-4.005-4.004
			c-5.48-5.487-14.891-1.601-14.891,6.163v9.032H109.4v-9.929c0-7.425-8.998-11.156-14.254-5.904l-4.642,4.642L69.423,172.31
			l22.076-22.075c4.29-4.291,9.884-6.801,15.889-7.173c3.388,13.617,15.714,23.738,30.365,23.738s26.976-10.122,30.365-23.738
			c6.004,0.371,11.599,2.882,15.889,7.173l0.001,0.001l22.075,22.074L185,193.392z"/>
	</g>
</g>
<g>
	<g>
		<path d="M132.992,369.767H73.11c-4.143,0-7.5,3.357-7.5,7.5c0,4.143,3.357,7.5,7.5,7.5h59.883c4.143,0,7.5-3.357,7.5-7.5
			S137.135,369.767,132.992,369.767z"/>
	</g>
</g>
<g>
	<g>
		<path d="M153.4,303.496H73.11c-4.143,0-7.5,3.358-7.5,7.5c0,4.143,3.357,7.5,7.5,7.5H153.4c4.143,0,7.5-3.357,7.5-7.5
			C160.9,306.853,157.543,303.496,153.4,303.496z"/>
	</g>
</g>
<g>
	<g>
		<path d="M132.992,336.632H73.11c-4.143,0-7.5,3.357-7.5,7.5c0,4.143,3.358,7.5,7.5,7.5h59.883c4.143,0,7.5-3.357,7.5-7.5
			C140.492,339.989,137.135,336.632,132.992,336.632z"/>
	</g>
</g>
<g>
	<g>
		<path d="M503.163,182.638L335.524,85.851c-8.452-4.88-19.244-1.99-24.125,6.465l-36.365,62.986V59.625
			c0-29.054-23.637-52.69-52.69-52.69H52.69C23.637,6.934,0,30.571,0,59.625v40.885c0,4.143,3.357,7.5,7.5,7.5
			c4.143,0,7.5-3.357,7.5-7.5V59.625c0-20.782,16.908-37.69,37.69-37.69h169.654c20.782,0,37.69,16.908,37.69,37.69V181.28
			l-10.037,17.386V59.626c0-15.248-12.405-27.653-27.653-27.653h-23.277c-7.117,0-12.908,5.791-12.908,12.908v6.916
			c0,2.258-1.908,4.166-4.166,4.166H93.041c-2.258,0-4.166-1.908-4.166-4.166v-4.783c0-8.294-6.747-15.041-15.041-15.041H52.69
			c-15.248,0-27.653,12.405-27.653,27.653v392.751c0,15.248,12.405,27.652,27.653,27.652h169.654
			c15.248,0,27.653-12.404,27.653-27.652v-34.991l10.037,5.795v29.196c0,20.782-16.908,37.689-37.69,37.689H52.69
			c-20.782,0-37.69-16.907-37.69-37.689V135.509c0-4.143-3.357-7.5-7.5-7.5c-4.143,0-7.5,3.357-7.5,7.5v316.867
			c0,29.053,23.637,52.689,52.69,52.689h169.654c29.054,0,52.69-23.637,52.69-52.689V431.84l63.189,36.482
			c8.488,4.9,19.288,1.914,24.126-6.465l23.82-41.26c2.071-3.587,0.842-8.174-2.745-10.245c-3.59-2.071-8.175-0.843-10.245,2.745
			l-23.82,41.259c-0.733,1.271-2.362,1.71-3.636,0.976c-19.721-11.386-75.582-43.637-96.2-55.542l149.941-259.704l96.199,55.541
			c1.255,0.725,1.718,2.345,0.974,3.635L390.679,382.788c-2.071,3.587-0.842,8.174,2.745,10.245
			c3.588,2.068,8.174,0.842,10.245-2.745l105.957-183.524C514.509,198.313,511.618,187.519,503.163,182.638z M234.998,452.376
			L234.998,452.376c0,6.977-5.677,12.652-12.653,12.652H52.69c-6.978,0-12.653-5.676-12.653-12.652V59.626
			c0-6.978,5.676-12.653,12.653-12.653l21.186,0.041v4.783c0,10.568,8.598,19.166,19.166,19.166h88.951
			c10.568,0,19.166-8.598,19.166-19.166v-4.824h21.186c6.977,0,12.653,5.676,12.653,12.653v165.021l-70.88,122.765
			c-4.867,8.434-1.967,19.256,6.466,24.124l64.414,37.19V452.376z M236.533,392.291l-23.68-13.671l105.815-183.278
			c2.071-3.587,0.842-8.174-2.745-10.245c-3.59-2.071-8.175-0.843-10.245,2.745L199.863,371.12l-21.779-12.574
			c-1.27-0.733-1.708-2.364-0.975-3.635c14.97-25.928,130.633-226.262,147.281-255.096c0.732-1.271,2.362-1.709,3.635-0.975
			l21.779,12.574l-26.625,46.116c-2.071,3.587-0.842,8.174,2.745,10.245c3.587,2.069,8.174,0.842,10.245-2.745l26.625-46.116
			l23.681,13.672L236.533,392.291z"/>
	</g>
</g>
<g>
</g>
<g>
</g>
<g>
</g>
<g>
</g>
<g>
</g>
<g>
</g>
<g>
</g>
<g>
</g>
<g>
</g>
<g>
</g>
<g>
</g>
<g>
</g>
<g>
</g>
<g>
</g>
<g>
</g>
</svg>
