<svg id="Capa_1" enable-background="new 0 0 512 512" height="512" viewBox="0 0 512 512" width="512" 
    xmlns="http://www.w3.org/2000/svg">

    <g>
        <path d="m440.526 204.028c4.143 0 7.5-3.358 7.5-7.5v-160.734c0-19.737-16.058-35.794-35.797-35.794h-312.458c-19.739 0-35.797 16.057-35.797 35.794v440.412c0 19.737 16.059 35.794 35.798 35.794h312.457c19.739 0 35.798-16.057 35.798-35.794v-248.94c0-4.142-3.357-7.5-7.5-7.5s-7.5 3.358-7.5 7.5v248.94c0 11.466-9.33 20.794-20.798 20.794h-312.458c-11.468 0-20.798-9.328-20.798-20.794v-440.412c.001-11.466 9.331-20.794 20.798-20.794h312.457c11.468 0 20.798 9.328 20.798 20.794v160.734c0 4.142 3.358 7.5 7.5 7.5z"/>
        <path d="m221.932 145.727c-13.379 4.851-23.35 16.543-26.021 30.512l-2.951 15.409c-1.46 7.63.542 15.441 5.493 21.429 4.95 5.987 12.245 9.421 20.014 9.421h75.068c7.711 0 14.971-3.391 19.918-9.303 4.946-5.911 7.004-13.652 5.646-21.238l-2.74-15.316c-2.539-14.202-12.543-26.082-26.107-31.004l-9.172-3.327v-14.747c6.636-6.809 10.436-16.061 10.436-25.526v-20.157c0-19.678-16.011-35.687-35.69-35.687-19.681 0-35.691 16.009-35.691 35.687v20.787c0 9.745 4.004 18.646 10.449 25.123v14.801zm79.66 33.555 2.74 15.318c.574 3.204-.295 6.474-2.384 8.969-2.089 2.497-5.156 3.929-8.414 3.929h-75.068c-3.281 0-6.362-1.451-8.453-3.979-2.092-2.53-2.938-5.829-2.321-9.05l2.951-15.41c1.685-8.804 7.969-16.172 16.402-19.23l5.661-2.052c.143.147.286.294.441.429 6.465 5.647 14.572 8.471 22.683 8.471 8.102 0 16.206-2.82 22.668-8.458.039-.034.088-.077.125-.112.188-.17.364-.351.532-.537l5.979 2.169c8.551 3.101 14.857 10.59 16.458 19.543zm-66.46-97.402c0-11.407 9.282-20.687 20.691-20.687 9.629 0 17.719 6.62 20.016 15.54-.964.471-1.953.915-2.967 1.321-9.224 3.693-16.673 3.204-18.802 1.71-3.39-2.378-8.068-1.557-10.446 1.834-2.378 3.392-1.557 8.069 1.835 10.447 3.663 2.569 8.635 3.853 14.308 3.853 5.155 0 10.891-1.071 16.747-3.191v9.329c0 5.733-2.371 11.346-6.505 15.402-3.993 3.917-9.172 6.028-14.594 5.913-11.185-.216-20.283-9.495-20.283-20.685zm19.994 56.469c.229.004.455.007.683.007 3.521 0 6.973-.53 10.27-1.547v11.993c-6.25 3.856-14.247 3.856-20.497 0v-11.972c3.036.921 6.235 1.455 9.544 1.519z"/>
        <path d="m399.754 335.904h-261.931c-4.143 0-7.5 3.357-7.5 7.5s3.357 7.5 7.5 7.5h261.931c4.143 0 7.5-3.357 7.5-7.5s-3.358-7.5-7.5-7.5z"/>
        <path d="m399.754 376.345h-261.931c-4.143 0-7.5 3.357-7.5 7.5s3.357 7.5 7.5 7.5h261.931c4.143 0 7.5-3.357 7.5-7.5s-3.358-7.5-7.5-7.5z"/>
        <path d="m399.754 416.785h-261.931c-4.143 0-7.5 3.357-7.5 7.5s3.357 7.5 7.5 7.5h261.931c4.143 0 7.5-3.357 7.5-7.5s-3.358-7.5-7.5-7.5z"/>
        <path d="m399.754 457.225h-261.931c-4.143 0-7.5 3.357-7.5 7.5s3.357 7.5 7.5 7.5h261.931c4.143 0 7.5-3.357 7.5-7.5s-3.358-7.5-7.5-7.5z"/>
        <path d="m399.754 255.024h-261.931c-4.143 0-7.5 3.357-7.5 7.5s3.357 7.5 7.5 7.5h261.931c4.143 0 7.5-3.357 7.5-7.5s-3.358-7.5-7.5-7.5z"/>
        <path d="m399.754 295.464h-261.931c-4.143 0-7.5 3.357-7.5 7.5s3.357 7.5 7.5 7.5h261.931c4.143 0 7.5-3.357 7.5-7.5s-3.358-7.5-7.5-7.5z"/>
        <path d="m110.127 335.877c-4.158 0-7.529 3.37-7.529 7.528 0 4.157 3.371 7.528 7.529 7.528s7.529-3.37 7.529-7.528c.001-4.158-3.37-7.528-7.529-7.528z"/>
        <path d="m110.127 254.996c-4.158 0-7.529 3.37-7.529 7.528s3.371 7.528 7.529 7.528 7.529-3.37 7.529-7.528-3.37-7.528-7.529-7.528z"/>
        <path d="m110.127 295.437c-4.158 0-7.529 3.37-7.529 7.528 0 4.157 3.371 7.528 7.529 7.528s7.529-3.37 7.529-7.528c.001-4.158-3.37-7.528-7.529-7.528z"/>
        <path d="m110.127 376.317c-4.158 0-7.529 3.37-7.529 7.528 0 4.157 3.371 7.528 7.529 7.528s7.529-3.37 7.529-7.528c.001-4.158-3.37-7.528-7.529-7.528z"/>
        <path d="m110.127 416.757c-4.158 0-7.529 3.37-7.529 7.528 0 4.157 3.371 7.528 7.529 7.528s7.529-3.37 7.529-7.528c.001-4.158-3.37-7.528-7.529-7.528z"/>
        <path d="m110.127 457.197c-4.158 0-7.529 3.37-7.529 7.528 0 4.157 3.371 7.528 7.529 7.528s7.529-3.37 7.529-7.528c.001-4.157-3.37-7.528-7.529-7.528z"/>
    </g>
</svg>